<?xml version="1.0" encoding="UTF-8"?>
<svg id="Layer_1" data-name="Layer 1" xmlns="http://www.w3.org/2000/svg" viewBox="0 0 372.97 201.61">
  <defs>
    <style>
      .cls-1 {
        fill: #010101;
      }
    </style>
  </defs>
  <path class="cls-1" d="M109.26,.93c-6.89-1.76-18-1.74-20.48,6.58-1.06,3.55,.28,7.83,.98,11.35,.79,3.98,1.71,7.94,2.56,11.91,1.62,7.55,3.17,15.37,2.35,23.12-.36,3.41-1.36,6.78-3.11,9.73-2.01,3.38-4.98,6.28-7.81,8.97-11.82,11.19-27.41,18.58-43.59,20.52-4.61,.55-9.29,.57-13.87,1.33-3.65,.6-7.21,2.01-10.38,3.92-6.55,3.94-11.76,10.15-14.25,17.4-2.11,6.14-2.56,13.92,.75,19.67,2.48,4.32,5.4,8.41,8.27,12.47,3.39,4.79,6.86,9.52,10.48,14.14,1.55,1.98,3.07,4.06,4.98,5.71,7.28,6.33,16.47,10.66,25.72,13.17,7.48,2.04,14.98,2.37,22.66,2.79,6.41,.35,12.81,1.05,19.18,1.84,14.9,1.86,29.72,4.32,44.58,6.5,12.79,1.88,25.76,3.96,38.72,4.16,17.39,.27,33.36-7.48,49.92-11.6,8-1.99,16.28-3.05,24.48-1.67,8.1,1.36,15.83,4.33,23.39,7.46,14.92,6.16,30.47,13.5,47.04,10.55,8.48-1.51,16.21-5.79,22.99-10.98s13.14-11.23,18.34-18.05c5.16-6.76,8.87-14.56,9.66-23.11,.85-9.16-1.85-18.26-5.66-26.49-7.68-16.6-19.54-31.39-35.52-40.55-32.55-18.65-71.7-18.45-107.39-26.69-8.58-1.98-17.12-4.38-25.24-7.81-7.7-3.25-15.08-7.24-22.31-11.42-15.03-8.7-29.47-18.49-45.08-26.16-7.19-3.53-14.62-6.61-22.35-8.75-3.11-.86-4.43,3.96-1.33,4.82,15.88,4.39,30.3,12.73,44.31,21.2,14.28,8.63,28.38,17.84,43.76,24.43,33,14.15,69.91,13.57,104.18,23.12,17.04,4.75,34.03,11.97,46.2,25.23,6.02,6.56,10.97,14.2,15.01,22.12s7.03,16.68,6.52,25.66c-.46,8.17-4.26,15.72-9.23,22.08-5.05,6.46-11.26,12.32-17.86,17.16s-14.21,8.79-22.49,9.67c-7.7,.82-15.3-.73-22.59-3.12-15.3-5.02-29.5-13.49-45.68-15.58-16.69-2.16-32.65,4.61-48.32,9.27-7.85,2.34-15.9,4.27-24.14,4.21-5.68-.04-11.36-.59-17-1.21-14.11-1.56-28.13-3.85-42.16-5.97-13.61-2.05-27.26-4.17-41-5.14-7.02-.5-13.98-.44-20.9-1.97-6.18-1.36-12.16-3.54-17.71-6.56s-9.14-5.62-13.02-10.46c-6.54-8.16-12.83-16.75-18.29-25.67-1.04-1.7-1.96-3.26-2.25-5.28-.53-3.71-.09-7.82,1.05-11.39,2.16-6.72,7.31-12.39,13.49-15.68,7.39-3.93,16.15-3.02,24.2-4.32s15.57-3.78,22.77-7.27,13.97-8.12,19.87-13.58c5.47-5.07,10.5-10.71,12.26-18.14s.89-14.97-.4-22.29c-1.37-7.76-3.45-15.38-4.73-23.16-.26-1.55-.68-3.22-.02-4.74,.59-1.35,1.77-2.25,3.15-2.67,3.43-1.04,7.58-.85,11.03,.03,3.12,.8,4.45-4.02,1.33-4.82h0Z"/>
</svg>