<?xml version="1.0" encoding="UTF-8"?>
<svg id="Layer_1" data-name="Layer 1" xmlns="http://www.w3.org/2000/svg" viewBox="0 0 397.92 206.34">
  <defs>
    <style>
      .cls-1 {
        fill: #010101;
      }
    </style>
  </defs>
  <path class="cls-1" d="M209.26,4.66c-2.94-3.82-8.43-4.28-12.9-4.54-5.56-.32-11.15,.05-16.69,.52-2.14,.18-4.29,.36-6.42,.59-4.41,.49-8.62,1.78-12.72,3.44-8.58,3.46-16.98,7.41-25.54,10.94-17.25,7.12-34.74,13.66-52.44,19.59s-34.73,10.63-52.21,15.65C17.25,54.62,2.63,61.09,.4,76.2c-1.14,7.7,.29,15.98,2.59,23.35s5.68,14.14,9.97,20.4c18.92,27.6,51.28,40.05,83.31,44.52,18.81,2.62,37.81,2.91,56.76,3.62,18.76,.7,37.38,2.36,55.94,5.29,36.37,5.73,72.04,15.03,108.06,22.48,18.03,3.73,36.16,6.99,54.45,9.14,4.47,.53,9.01,1.18,13.51,1.34,3.75,.13,7.3-.96,9.4-4.26s2.2-7.33,2.62-10.96c.51-4.49,.83-9,.91-13.52,.31-16.94-2.68-34.27-10.93-49.22-7.06-12.77-17.9-23.79-31.45-29.53-8.09-3.43-16.79-4.66-25.44-5.75-9.44-1.18-18.9-2.21-28.31-3.59-17.17-2.51-34.45-6.16-50.16-13.76-6.86-3.32-13.45-7.32-19.34-12.17s-11.76-10.43-15.21-17.05c-5.61-10.76,.19-22.81-2.6-34-1.4-5.63-5.5-9.2-10.74-11.29-2.99-1.19-4.29,3.64-1.33,4.82,4.79,1.91,7.33,5.59,7.7,10.69,.4,5.48-.57,10.96-.63,16.43-.07,6.16,.96,12.44,4.35,17.7,3.96,6.15,9.31,11.6,14.93,16.23,26.01,21.43,60.09,26,92.43,29.9,8.85,1.07,17.88,1.84,26.47,4.32,6.91,2,13.36,5.41,18.92,9.98,11.43,9.39,19.09,22.55,22.96,36.72,2.25,8.24,3.27,16.76,3.4,25.29,.06,4.28-.09,8.57-.44,12.84-.31,3.84-.42,8.06-1.64,11.74-1.31,3.95-4.89,3.57-8.37,3.26-4.4-.4-8.8-.87-13.19-1.41-8.92-1.09-17.8-2.47-26.65-4.02-35.05-6.15-69.52-15.14-104.41-22.11-17.31-3.46-34.74-6.41-52.3-8.29-18.38-1.96-36.84-2.24-55.29-3.02-32.92-1.38-68.72-5.15-95.62-26.16-11.35-8.87-20.85-20.66-25.93-34.23-2.59-6.91-4.27-14.43-4.02-21.84s3.67-13.21,9.67-17.23c5.44-3.64,11.76-5.69,18.01-7.44,8.29-2.33,16.6-4.55,24.84-7.01,17.16-5.12,34.15-10.81,50.94-17.04s33.47-13.16,49.94-20.39c3.97-1.74,8.03-3.38,12.28-4.28,2.43-.51,4.94-.66,7.41-.88,5.3-.48,10.63-.87,15.95-.75,2.3,.05,4.62,.17,6.88,.64,.84,.17,1.93,.44,2.6,.73,.34,.15,.68,.33,.99,.53,.06,.04,.53,.47,.37,.26,.83,1.08,2.14,1.63,3.42,.9,1.06-.6,1.72-2.35,.9-3.42h0Z"/>
</svg>