<?xml version="1.0" encoding="utf-8"?>
<!-- Generator: Adobe Illustrator 27.0.0, SVG Export Plug-In . SVG Version: 6.00 Build 0)  -->
<svg version="1.1" id="Layer_1" xmlns="http://www.w3.org/2000/svg" xmlns:xlink="http://www.w3.org/1999/xlink" x="0px" y="0px"
	 viewBox="0 0 841.89 595.28" style="enable-background:new 0 0 841.89 595.28;" xml:space="preserve">
<style type="text/css">
	.st0{fill:#0F0708;}
	.st1{fill:#010101;}
</style>
<g>
	<path class="st0" d="M209.51,100.64c-15.04-2.84-16.71-5.05-32.06-5.25c-5-0.07-10.21,0.05-14.66,2.14
		c-3.84,1.8-6.73,4.89-9.43,7.96c-9.01,10.25-17.05,21.21-24.01,32.72c-4.21,6.96-8.08,14.2-13.79,20.21
		c-6.63,6.97-15.42,11.92-24.32,16.3c-14.1,6.92-28.88,12.69-44.1,17.21c-7.63,2.27-15.63,4.34-21.72,9.11
		c-8.56,6.69-11.84,17.8-10.64,28.04c1.2,10.23,6.3,19.74,12.2,28.51c13.69,20.36,35.02,39.3,61.16,40.03
		c8.05,0.23,16.04-1.31,23.86-3.07c17.39-3.92,34.48-8.99,51.07-15.15c25.49-9.48,50.37-21.69,77.7-24.7
		c15.11-1.67,30.43-0.44,45.62-1.28c21.41-1.19,42.54-6.55,61.56-15.62c9.53-4.55,18.8-10.25,24.63-18.5
		c6.56-9.27,8.09-20.74,8.41-31.78c0.17-5.91,0.02-11.96-2.2-17.51c-2.22-5.55-6.85-10.6-13.07-12.2
		c-5.47-1.41-11.26-0.05-16.87,0.74c-19.69,2.8-39.99-1.52-58.02-9.28c-18.02-7.76-34.07-18.84-49.62-30.22
		C230.02,110.84,222.24,106.65,209.51,100.64"/>
	<g>
		<path class="st1" d="M210.17,98.23c-5.88-1.12-11.63-2.79-17.5-3.95c-6.27-1.24-12.78-1.57-19.17-1.37
			c-3.89,0.12-7.81,0.63-11.4,2.2c-3.31,1.45-6.09,3.83-8.55,6.43c-5.32,5.63-10.14,11.8-14.74,18.03
			c-4.72,6.39-9.06,13.03-13.12,19.86c-3.88,6.54-7.72,13.18-13.21,18.53c-5.32,5.17-11.73,9.04-18.28,12.45
			c-7.08,3.69-14.37,7-21.77,10c-7.55,3.06-15.23,5.8-23.01,8.2c-7.01,2.16-14.29,3.86-20.8,7.36c-11.97,6.43-17.9,19.81-16.37,33.1
			c1.67,14.47,10.17,27.56,19.11,38.69c8.26,10.29,18.38,19.46,30.23,25.43c5.91,2.97,12.23,5.17,18.78,6.19
			c7.77,1.21,15.51,0.74,23.24-0.58c16.34-2.8,32.54-7.52,48.24-12.79c29.83-10.01,58.58-25.83,90.32-28.96
			c16.7-1.65,33.51-0.04,50.22-1.58c15.71-1.45,31.23-5.03,45.92-10.8c13.18-5.18,27.23-11.75,35.9-23.41
			c4.3-5.77,6.75-12.76,7.97-19.8c1.25-7.22,1.78-14.87,1.16-22.18c-0.59-6.98-2.81-13.88-8.01-18.81
			c-5.57-5.27-12.65-6.34-20.04-5.39c-3.91,0.5-7.78,1.24-11.71,1.55c-3.95,0.31-7.93,0.35-11.89,0.15
			c-7.83-0.4-15.58-1.78-23.13-3.88c-15.15-4.21-29.24-11.36-42.5-19.73c-6.61-4.17-13.02-8.63-19.35-13.2
			c-5.84-4.22-11.64-8.47-17.86-12.13c-5.85-3.45-11.95-6.44-18.09-9.34c-2.89-1.37-5.43,2.94-2.52,4.32
			c6.14,2.9,12.24,5.89,18.09,9.34c6.03,3.55,11.66,7.65,17.32,11.75c12.22,8.84,24.79,17.32,38.33,24.01
			c13.57,6.71,28.04,11.54,43.11,13.3c7.67,0.9,15.42,0.92,23.08-0.09c7.03-0.92,14.75-3.13,21.19,0.98
			c5.63,3.58,8.26,10.11,8.9,16.51c0.7,7.04,0.29,14.54-0.92,21.51c-1.17,6.74-3.42,13.37-7.64,18.84
			c-4.18,5.42-9.84,9.5-15.73,12.86c-12.9,7.37-27.31,12.37-41.79,15.55c-7.52,1.65-15.14,2.77-22.81,3.34
			c-8.13,0.6-16.28,0.53-24.42,0.53c-8.08,0-16.17,0.06-24.21,0.95c-7.61,0.84-15.12,2.35-22.51,4.36
			c-14.77,4.02-28.94,9.89-43.15,15.52c-14.66,5.81-29.49,11.05-44.69,15.27c-7.8,2.16-15.67,4.14-23.59,5.77
			c-7.66,1.57-15.44,2.55-23.26,1.69c-25.84-2.84-46.59-24.12-58.91-45.61c-6.56-11.44-10.89-25.68-4.35-38.13
			c6.78-12.91,22.49-14.96,35.06-19.08c14.77-4.83,29.35-10.77,43.05-18.13c6.31-3.39,12.45-7.32,17.61-12.34
			c5.24-5.1,9.13-11.35,12.84-17.6c7.89-13.3,16.69-25.98,27.03-37.51c2.23-2.48,4.6-4.9,7.61-6.42c3.27-1.66,7.05-1.99,10.66-2.06
			c6.07-0.12,12.22,0.15,18.17,1.41c5.52,1.17,10.96,2.68,16.51,3.74C211.99,103.66,213.33,98.84,210.17,98.23L210.17,98.23z"/>
	</g>
</g>
</svg>
